<?xml version="1.0" encoding="utf-8"?>
<!-- Generator: Adobe Illustrator 18.1.1, SVG Export Plug-In . SVG Version: 6.00 Build 0)  -->
<!DOCTYPE svg PUBLIC "-//W3C//DTD SVG 1.1//EN" "http://www.w3.org/Graphics/SVG/1.1/DTD/svg11.dtd">
<svg version="1.1" id="Ebene_1" xmlns="http://www.w3.org/2000/svg" xmlns:xlink="http://www.w3.org/1999/xlink" x="0px" y="0px"
	 width="615.3px" height="655.3px" viewBox="0 0 615.3 655.3" enable-background="new 0 0 615.3 655.3" xml:space="preserve">
<g>
	<g>
		<path fill="#FFFFFF" d="M569.9,149.9l-10.6,9.4l-8.1,7.8l0,0l-27.7,22.6l-4.1,7.5l-18,36l-0.2-0.4c-0.1-0.1-0.1-0.3-0.2-0.4
			c4.2-28-8.8-35-8.8-35c2.6,7.5,3,15,2.6,21.4c-13-26.2-32.4-54.3-58.3-78.1c5.6-8.9,4-15,4-15c-2.3,4.3-5.1,8-8.2,11.2
			c-1.9-1.7-3.9-3.4-5.9-5c3.5-13.2-0.8-28.5-0.8-28.5c-1.8,6.8-5.6,13.7-10.2,20c-1.3-1-2.7-1.9-4.1-2.8c3.2-19.3-5.5-26-5.5-26
			c1.4,7.8,0.5,15.4-1,21.6c-27.5-17.6-60.1-30-98-32.6c-0.3,0-3.4,0-3.9,0c-23.1,1.6-44.1,6.9-63.1,14.7
			c-11.2-15.7-22.6-32.9-22.6-32.9s-0.7,18.9-0.6,41.4c-17.7-21-42.5-54.5-42.5-54.5s0.8,45.1,4.5,85.3c-2.2,2-4.3,4-6.4,6
			c0,0-44.3,55.4-55.5,81c-1.9-3.5-3.4-7.1-4.4-10.7c0,0-3.7,13-1.5,25.4c-1.2,3.4-6.3,20.5-6.7,22.2c-3.3-0.8-6.6-1.4-9.4-1.5
			c-2.9-4.2-5.6-9.1-7.3-14.7c0,0-2.7,5.5,0.7,14.9c-7.7-0.7-14.6-6-23.6-2.5c0,0,13.2,2.7,14.2,13.2c0,0-16.8-3.6-26.8,6.6
			c0,0,18.2-3.6,20.7,3.4c0,0-13.3,5.2-19.4,19.1c0,0,12.6-11.7,17-5c0,0-10.5,9.2,4.4,41.4c14.9,32.2,39.9,62.5,49,70.9
			c9.1,8.4-1.2,16.5,5.9,30.6c0,0,2.7-16.2,9.4-17.7c0,0-6.6,9.5,4.8,20.9c0,0-1.5-11.9,2.6-15.2c0,0-1.4,12.8,11.5,15.9
			c0,0-9.3-10.8-5.1-18.2c0,0,2.6-0.3,5.5-1.8c3.6,4.1,7.3,8.1,11.2,11.8c-2.8,6.4-4.3,14-4.3,23.3c0,4.4,0.3,9.1,0.9,14
			c-6.4,11-10.3,27.2-11.9,56c0,0,7.5-16.3,18.2-27.3c0.8,2.5,1.6,5,2.5,7.5c-4,10.9-7.7,28.6-4.3,54.8c0,0,3.9-20.7,13.8-33
			c2.3,4.5,4.8,8.9,7.5,13.3c-3.1,14.9-2.9,36.5,12.4,56.7c0,0-2.5-22.3,1.4-37.6c14.2,17.2,32.2,31.9,53.9,41.2
			c14.1,6,29.7,15,46.9,15.7c1,0,7.1,0,8.5,0c14.4-0.7,27.5-8.7,39.5-13.3c23-8.7,41.5-23.6,56-41.3c3.1,15.1,0.8,35.3,0.8,35.3
			c14.7-19.3,15.5-39.9,12.8-54.7c2.8-4.7,5.5-9.6,7.8-14.4c9.4,12.4,13.1,32.1,13.1,32.1c3.3-25.6-0.2-43.2-4.1-54.1
			c0.9-2.7,1.7-5.3,2.5-7.9c10.6,11,18.1,27.1,18.1,27.1c-1.7-29.3-5.6-45.6-12.2-56.6c0.5-4.7,0.7-9.2,0.7-13.5
			c0-9.2-1.5-16.9-4.3-23.3c3.9-3.8,7.6-7.7,11.2-11.8c2.9,1.5,5.4,1.8,5.4,1.8c4.3,7.4-5.1,18.2-5.1,18.2
			c12.9-3.1,11.5-15.9,11.5-15.9c4.1,3.3,2.6,15.2,2.6,15.2c11.4-11.4,4.8-20.9,4.8-20.9c6.7,1.5,9.4,17.7,9.4,17.7
			c7.1-14.1-3.2-22.2,5.9-30.6c9.1-8.4,34-38.7,49-70.9c14.9-32.2,4.4-41.4,4.4-41.4c4.4-6.7,17,5,17,5c-6-13.9-19.4-19.1-19.4-19.1
			c2.5-7,20.7-3.4,20.7-3.4c-10.1-10.2-26.8-6.6-26.8-6.6c0.9-10.5,14.2-13.2,14.2-13.2c-4.8-1.9-9.1-1.2-13.1-0.1l21.5-40.2
			l8.1-11.5V174l1.5-10.9l0.3,0.1L569.9,149.9z"/>
		<path fill="#FFFFFF" d="M174.3,52.3c0,0,24.8,33.5,42.5,54.5c-0.1-22.6,0.6-41.4,0.6-41.4s11.3,17.2,22.6,32.9
			c19-7.9,40-13.1,63.1-14.7c0.3,0,1.9,0,3,0c0.5,0,0.8,0,0.9,0c37.9,2.6,70.5,14.9,98,32.6c1.5-6.2,2.4-13.8,1-21.6
			c0,0,8.8,6.7,5.5,26c1.4,0.9,2.7,1.9,4.1,2.8c4.6-6.3,8.4-13.1,10.2-20c0,0,4.3,15.2,0.8,28.5c2,1.6,3.9,3.3,5.9,5
			c3-3.2,5.9-6.9,8.2-11.2c0,0,1.7,6.1-4,15c25.9,23.8,45.3,51.9,58.3,78.1c0.4-6.4,0.1-13.9-2.6-21.4c0,0,13,7,8.8,35
			c0.1,0.1,0.1,0.3,0.2,0.4l0.2,0.4l18-36l4.1-7.5l27.7-22.6l8.1-7.8l10.6-9.4l-0.8,13.4l-0.3-0.1l-1.5,10.9v31.9l-8.1,11.5
			l-21.5,40.2c2.2-0.6,4.4-1.1,6.8-1.1c2,0,4.1,0.3,6.3,1.2c0,0-13.2,2.7-14.2,13.2c0,0,2.9-0.6,6.9-0.6c5.8,0,14,1.2,19.9,7.2
			c0,0-4.7-0.9-9.6-0.9c-4.8,0-9.9,0.9-11.1,4.4c0,0,13.4,5.2,19.4,19.1c0,0-7.7-7.1-13.1-7.1c-1.6,0-2.9,0.6-3.9,2.1
			c0,0,10.5,9.2-4.4,41.4c-14.9,32.2-39.9,62.5-49,70.9c-9.1,8.4,1.2,16.5-5.9,30.6c0,0-2.7-16.2-9.4-17.7c0,0,6.6,9.5-4.8,20.9
			c0,0,1.5-11.9-2.6-15.2c0,0,1.4,12.8-11.5,15.9c0,0,9.3-10.8,5.1-18.2c0,0-2.5-0.3-5.4-1.8c-3.6,4.1-7.3,8-11.2,11.8
			c2.8,6.4,4.3,14,4.3,23.3c0,4.3-0.2,8.8-0.7,13.5c6.6,11,10.5,27.2,12.2,56.6c0,0-7.4-16.1-18.1-27.1c-0.8,2.6-1.6,5.3-2.5,7.9
			c3.9,10.9,7.4,28.5,4.1,54.1c0,0-3.7-19.7-13.1-32.1c-2.4,4.9-5,9.7-7.8,14.4c2.7,14.8,1.9,35.4-12.8,54.7c0,0,2.3-20.2-0.8-35.3
			c-14.5,17.7-33,32.6-56,41.3c-12,4.6-25.1,12.5-39.5,13.3c-0.9,0-3.8,0.1-5.9,0.1c-1.2,0-2.2,0-2.5,0
			c-17.2-0.8-32.8-9.7-46.9-15.7c-21.7-9.3-39.7-24.1-53.9-41.2c-3.9,15.3-1.4,37.6-1.4,37.6c-15.3-20.2-15.5-41.8-12.4-56.7
			c-2.7-4.4-5.2-8.8-7.5-13.3c-9.9,12.3-13.8,33-13.8,33c-3.3-26.1,0.4-43.9,4.3-54.8c-0.9-2.5-1.8-5-2.5-7.5
			c-10.7,11-18.2,27.3-18.2,27.3c1.6-28.9,5.5-45.1,11.9-56c-0.6-4.9-0.9-9.6-0.9-14c0-9.2,1.5-16.9,4.3-23.3
			c-3.9-3.8-7.6-7.8-11.2-11.8c-2.9,1.5-5.5,1.8-5.5,1.8c-4.3,7.4,5.1,18.2,5.1,18.2c-12.9-3.1-11.5-15.9-11.5-15.9
			c-4.1,3.3-2.6,15.2-2.6,15.2c-11.4-11.4-4.8-20.9-4.8-20.9c-6.7,1.5-9.4,17.7-9.4,17.7c-7.1-14.1,3.2-22.2-5.9-30.6
			c-9.1-8.4-34-38.7-49-70.9c-15-32.2-4.4-41.4-4.4-41.4c-1-1.5-2.4-2.1-3.9-2.1c-5.5,0-13.1,7.1-13.1,7.1
			c6-13.9,19.4-19.1,19.4-19.1c-1.2-3.5-6.3-4.4-11.1-4.4c-4.9,0-9.6,0.9-9.6,0.9c5.9-6,14.1-7.2,19.9-7.2c4.1,0,6.9,0.6,6.9,0.6
			c-0.9-10.5-14.2-13.2-14.2-13.2c2.2-0.8,4.3-1.2,6.3-1.2c6.2,0,11.5,3.1,17.3,3.7c-3.5-9.4-0.7-14.9-0.7-14.9
			c1.7,5.6,4.3,10.5,7.3,14.7c2.9,0.1,6.2,0.7,9.4,1.5c0.4-1.7,5.5-18.8,6.7-22.2c-2.2-12.4,1.5-25.4,1.5-25.4
			c1,3.6,2.5,7.2,4.4,10.7c11.2-25.7,55.5-81,55.5-81c2.1-2,4.2-4,6.4-6C175.1,97.4,174.3,52.3,174.3,52.3 M163.4,20.1l0.6,32.4
			c0,0.4,0.8,42.2,4.1,81c-1,0.9-1.9,1.9-2.9,2.7l-0.4,0.4l-0.4,0.5c-1.4,1.8-27.8,34.9-45,62l-6.5-24.2L102.6,211
			c-0.4,1.5-3.8,13.9-2.1,27.3c-0.6,1.8-1.3,4.1-2,6.5c-0.3-0.8-0.6-1.7-0.8-2.5l-7.5-25.2l-11.7,23.5c-0.4,0.7-1.3,2.8-1.8,6
			c-1.7-0.3-3.6-0.5-5.6-0.5c-3.4,0-6.8,0.6-10,1.9l-33.4,12.8l23,4.6c-2.2,1.4-4.2,3-6,4.8l-23.6,24l26.6-5.3
			c-1.4,2.1-2.7,4.4-3.8,7l-19.6,45.2l32.4-30c0.6,7.6,3.1,17.4,8.8,29.6c15.3,33.1,41,64.6,51.4,74.2c0.5,0.5,0.6,0.7,0.6,0.7
			c0.2,0.6-0.1,2.8-0.2,4.2c-0.6,5.3-1.5,13.2,3.3,22.8l14.3,28.3l3.5-20.9l17.3,17.3c0,0.5,0.1,1,0.1,1.5
			c-6.5,12.8-10.1,30.3-11.6,57.6l-3.1,54.6l18.2-39.6c0,7,0.4,14.2,1.4,21.8l8.3,65.2l11.8-62.8c1.2,12.1,5.4,26,15.7,39.6l22.8,30
			l-4.2-37.4c0-0.1-0.6-5.6-0.7-12.8c12.6,11.5,26.5,20.6,41.6,27.1c2.7,1.2,5.4,2.4,8.2,3.7c12.4,5.7,26.5,12.2,42.3,12.9
			c0.4,0,1.6,0,3,0c0.2,0,4.9,0,6.5-0.1c12.4-0.6,23.4-5.6,33.1-9.9c3.3-1.5,6.5-2.9,9.5-4c15.9-6,30.5-15,43.5-26.8
			c-0.2,5.7-0.6,9.8-0.7,9.9l-4.2,37.4l22.7-29.9c10.1-13.4,14.4-27,15.7-39.3l11.8,62.6l8.3-65.2c1-7.6,1.4-14.9,1.4-21.9
			l18.2,39.3l-3.1-54.3c-1.6-27.6-5.2-45.4-11.9-58.2c0-0.3,0.1-0.7,0.1-1l17.2-17.1l3.5,20.7l14.2-28.1c4.8-9.6,3.9-17.5,3.3-22.8
			c-0.2-1.5-0.4-3.7-0.2-4.2l0,0c0,0,0.1-0.2,0.6-0.7c10.3-9.5,36-41.1,51.4-74.2c5.7-12.3,8.2-22.1,8.8-29.7l32.1,29.4l-19.3-44.5
			c-1.1-2.6-2.4-4.9-3.8-7l26.4,5.1l-23.4-23.8c-1.9-1.9-4-3.6-6.3-5l21.9-4.9L554.5,248l13.5-25.2l7.7-11l1.9-2.7v-3.3v-28l1,0.4
			l0.9-14.4l0.8-13.4l1.5-24.9L563,142.1l-10.6,9.4l-0.2,0.1l-0.2,0.1l-7.8,7.5L517,181.6l-1.5,1.3l-1,1.8l-4.1,7.5l-0.1,0.2
			l-0.1,0.2l-3.1,6.3c-3.9-7.2-8.8-10.1-9.8-10.6l-12-6.5c-9.4-13.9-21.2-28.9-36.1-43.4c3-8.2,1.7-14.1,1.3-15.4l-6.9-25.4
			l-6.2,11.7c-0.7-4.7-1.6-7.9-1.8-8.7l-10.3-36.2l-7.6,28.6c-2.4-4.1-4.9-6.2-5.5-6.7L391,70l4.7,26.3c0.1,0.8,0.3,1.7,0.4,2.6
			c-27.5-14.9-57.2-23.5-88.4-25.6c-0.2,0-0.8,0-1.6,0c-1.3,0-3.3,0-3.7,0.1c-20.3,1.4-39.9,5.6-58.6,12.4
			c-9.3-13.3-17.6-25.8-17.7-26l-17.8-27L207,65c0,0.1-0.2,5-0.3,12.7c-12.6-16.2-23.9-31.4-24-31.6L163.4,20.1L163.4,20.1z"/>
	</g>
	<g>
		<path fill="#221F1F" d="M563.5,276.2c-10.1-10.4-26.8-6.8-26.8-6.8c0.9-10.7,14.2-13.4,14.2-13.4c-4.8-1.9-9.1-1.2-13.1-0.1
			l21.5-41l-7.2-0.4l-4.2-4.4l-19.8,37.9c-0.2-3-1-4.6-1-4.6c-1.1,3.7-2.6,7-4.3,10.1l-3-1.6l23.1-44.3h-6.4l-2.8-4.3L510.7,247
			l-4.1-2.1c-0.1-0.4-0.3-0.8-0.4-1.2l22.4-42.8h-6.3l-2.9-6.7l-18,36.8l-0.2-0.4c-0.1-0.1-0.1-0.3-0.2-0.4
			c4.2-28.6-8.8-35.8-8.8-35.8c2.6,7.6,3,15.4,2.6,21.9c-13-26.8-32.4-55.5-58.3-79.8c5.6-9.1,4-15.3,4-15.3
			c-2.3,4.4-5.1,8.2-8.2,11.5c-1.9-1.7-3.9-3.4-5.9-5.1c3.5-13.5-0.8-29.1-0.8-29.1c-1.8,7-5.6,14-10.2,20.4c-1.3-1-2.7-1.9-4.1-2.9
			c3.2-19.7-5.5-26.5-5.5-26.5c1.4,8,0.5,15.7-1,22.1c-27.5-18-60.1-30.7-98-33.3c-0.3,0-3.4,0-3.9,0c-23.1,1.6-44.1,7-63.1,15
			c-11.2-16.1-22.6-33.6-22.6-33.6s-0.7,19.3-0.6,42.3c-17.7-21.5-42.5-55.7-42.5-55.7s0.8,46.1,4.5,87.1c-2.2,2-4.3,4-6.4,6.1
			c0,0-44.3,56.6-55.5,82.8c-1.9-3.6-3.4-7.3-4.4-10.9c0,0-3.7,13.3-1.5,25.9c-1.2,3.4-6.3,21-6.7,22.7c-3.3-0.8-6.6-1.4-9.4-1.5
			c-2.9-4.3-5.6-9.3-7.3-15c0,0-2.7,5.6,0.7,15.2c-7.7-0.7-14.6-6.1-23.6-2.5c0,0,13.2,2.7,14.2,13.4c0,0-16.8-3.7-26.8,6.8
			c0,0,18.2-3.7,20.7,3.5c0,0-13.3,5.3-19.4,19.5c0,0,12.6-12,17-5.1c0,0-10.5,9.4,4.4,42.3c14.9,32.9,39.9,63.9,49,72.4
			c9.1,8.6-1.2,16.9,5.9,31.3c0,0,2.7-16.6,9.4-18.1c0,0-6.6,9.7,4.8,21.4c0,0-1.5-12.2,2.6-15.5c0,0-1.4,13.1,11.5,16.2
			c0,0-9.3-11.1-5.1-18.6c0,0,2.6-0.3,5.5-1.8c3.6,4.2,7.3,8.2,11.2,12.1c-2.8,6.5-4.3,14.3-4.3,23.8c0,4.5,0.3,9.3,0.9,14.3
			c-6.4,11.2-10.3,27.8-11.9,57.2c0,0,7.5-16.6,18.2-27.9c0.8,2.5,1.6,5.1,2.5,7.6c-4,11.1-7.7,29.2-4.3,55.9
			c0,0,3.9-21.1,13.8-33.7c2.3,4.6,4.8,9.1,7.5,13.6c-3.1,15.2-2.9,37.3,12.4,57.9c0,0-2.5-22.8,1.4-38.4
			c14.2,17.5,32.2,32.6,53.9,42.1c14.1,6.2,29.7,15.3,46.9,16.1c1,0,7.1,0,8.5-0.1c14.4-0.8,27.5-8.9,39.5-13.6
			c23-8.9,41.5-24.1,56-42.2c3.1,15.4,0.8,36,0.8,36c14.7-19.7,15.5-40.8,12.8-55.9c2.8-4.8,5.5-9.8,7.8-14.7
			c9.4,12.7,13.1,32.8,13.1,32.8c3.3-26.2-0.2-44.1-4.1-55.3c0.9-2.7,1.7-5.4,2.5-8.1c10.6,11.2,18.1,27.7,18.1,27.7
			c-1.7-29.9-5.6-46.6-12.2-57.8c0.5-4.8,0.7-9.4,0.7-13.8c0-9.4-1.5-17.3-4.3-23.8c3.9-3.8,7.6-7.9,11.2-12.1
			c2.9,1.5,5.4,1.8,5.4,1.8c4.3,7.6-5.1,18.6-5.1,18.6c12.9-3.1,11.5-16.2,11.5-16.2c4.1,3.3,2.6,15.5,2.6,15.5
			c11.4-11.6,4.8-21.4,4.8-21.4c6.7,1.5,9.4,18.1,9.4,18.1c7.1-14.4-3.2-22.7,5.9-31.3c9.1-8.6,34-39.5,49-72.4
			c14.9-32.9,4.4-42.3,4.4-42.3c4.4-6.8,17,5.1,17,5.1c-6-14.2-19.4-19.5-19.4-19.5C545.3,272.5,563.5,276.2,563.5,276.2z
			 M463.7,311.1c-0.8,8-1.8,13.2-5.3,21.6c-3.5,8.4-14.7,20.6-26.2,24.1c-11.7,3.6-39.4,3.6-48.6,1.2c-9-2.4-22.8-12-29.3-19.4
			c-6.4-7.4-14-30.9-14-30.9s-4-11.5,0-25.3c4-13.8,21.5-19.8,35.7-22.2c14.2-2.4,51.9-4.4,66,0c14.2,4.4,19.9,15.3,21.6,23.6
			C465.5,292.2,464.5,303.2,463.7,311.1z M295.8,231l11.9,5.2l12.2-5.2c83.5-39.2,120.9-25.3,141.6,14.4
			c-18.3-1.2-37.6-2.3-37.6-2.3s-18-1.7-33.7,0c-15.8,1.7-64.3,15.7-68.6,16.3c-3.8,0.5-12.4,0.1-14.4,0c0,0,0,0,0,0s-0.1,0-0.2,0
			c-0.1,0-0.2,0-0.2,0s0,0,0,0c-2,0.1-10.7,0.5-14.4,0c-4.3-0.6-52.7-14.6-68.6-16.3c-15.7-1.7-33.7,0-33.7,0s-18,1-35.8,2.2
			C174.9,205.7,212.4,191.8,295.8,231z M273.4,307.8c0,0-7.6,23.5-14,30.9c-6.5,7.4-20.3,17-29.3,19.4c-9.1,2.4-36.9,2.4-48.6-1.2
			c-11.5-3.5-22.7-15.7-26.2-24.1c-3.5-8.4-4.5-13.7-5.3-21.6c-0.8-8-1.8-18.9,0-27.3c1.8-8.3,7.4-19.2,21.6-23.6
			c14.2-4.4,51.8-2.4,66,0s31.7,8.4,35.7,22.2C277.5,296.3,273.4,307.8,273.4,307.8z M140.8,281.9c0-0.4,1.2-10.2,5.4-16.3
			c4.4-6.3,11.9-9.9,12.2-10.1c1.4-0.7,3.1-0.1,3.8,1.3c0.7,1.4,0.1,3.1-1.3,3.8c-0.1,0-6.5,3.1-10,8.2c-2.9,4.1-4.2,11.3-4.5,13.7
			c-0.2,1.4-1.4,2.5-2.8,2.5c-0.1,0-0.2,0-0.3,0C141.8,284.8,140.7,283.4,140.8,281.9z M135.8,401c-9.8-1.9-19-21.5-30.3-34.5
			c-11.4-12.9-23.8-45.6-23.8-45.6c-3.4-11.2-4.4-23.8,7-35.1c4.3-4.2,8.3-5.7,12.6-6.1c-0.1,1.9-0.2,3.7-0.2,5.4
			c0,29.4,8.4,55.9,21.9,74.9c4.6,14.8,11.2,28.9,19.4,41.9C140.3,401.8,137.9,401.4,135.8,401z M426.2,497.1
			c-1.6,6.3-3.1,13.7-4.2,22.8c-4.1,36.3-26.3,43.9-26.3,43.9c0-0.8,0.1-1.6,0.1-2.3c-0.5,0.2-0.7,0.3-0.7,0.3
			c0.3-5.7-0.3-10.5-1.5-14.7c-4.8-13.4-15.4-18.3-15.4-18.3c4.5,18-0.9,37.7-7.3,54.7c-3.5,9.2-17.9,14.4-39.2,16.8
			c-5.3,0.6-16,6.2-21.6,6.3h-3.2c-7.1-0.1-15.4-6.2-20.5-6.8c-19.5-2.4-35.2-8.7-40.3-16.3c-1.6-2.4-3.1-5.8-4.4-10
			c-3.8-11-5.6-28-0.8-42.4c-4.5,4.8-14,16.7-16.5,34.2c0,0-18.9-6.8-26.7-32c-1.6-4.5-2.8-9.6-3.4-15.4c-0.8-6.6-2-8.3-2.7-13.6
			c0.5,0.2,1,0.3,1.5,0.4c-0.1-0.9-0.2-1.8-0.3-2.6c26.2,7.8,54.8,11.4,83,12.3c63.7-1,125.2-17.2,150.7-24.8
			c-0.5,2.1-1.1,4.8-1.8,8C425.2,497.4,425.7,497.2,426.2,497.1z M201.1,496c-6.4-4.3-10.8-14.2-11.2-19.8c0-0.2,0-0.4,0-0.6
			c-0.1-3.6,2-7.3,7.4-11c7.2-5,3.1-15.3,8.3-23.3c10.5-16.6,26-23.5,26-23.5s-10-2.9-19.5,2.6c-0.9,0.1-2,0.3-3.1,0.4
			c3-5.4,10.5-16.3,23.3-19.2c0,0-22-0.7-35.8,19.4c0,0-5.3-14.7,23-29.4c0,0-11.9-2.5-28.3,10c-14.3,10.8-18,10.1-29.2,0
			c-3.5-3.2-6.9-7.5-10.3-12.6c-11-24.4-22-58.3-15.9-86.8c0.3-1.4,0.6-2.8,0.9-4.2c1.5,9.7,1.5,23.8,2.9,30.5
			c1.9,9.4,13,27.8,23,33.1c10,5.4,29.1,10.5,42.4,10.9c13.3,0.5,35.3-2.8,43.1-7.8c6-3.8,14.5-10.1,21.6-18
			c5.2-5.8,9.7-12.1,12.8-17.4c7.3-12.5,13.7-36.8,14.9-39.9c1.1-2.8,7.4-10.2,9.6-10.2c2.2,0,8.4,7.4,9.6,10.2
			c1.2,3.1,7.6,27.4,14.9,39.9c3.1,5.3,7.6,11.6,12.8,17.4c7.1,7.9,15.7,14.2,21.6,18c7.8,4.9,29.7,8.2,43.1,7.8
			c13.3-0.5,32.5-5.5,42.4-10.9c10-5.4,21-23.7,23-33.1c1.6-7.8,1.3-25.4,3.7-34.7c0.6,2.7,1.3,5.5,1.9,8.3
			c4.7,21.5-0.5,46.1-8,67.3c-6.2,13.4-13.3,25.4-20.8,32.1c-11.2,10.1-14.9,10.8-29.2,0c-16.5-12.5-28.3-10-28.3-10
			c28.3,14.7,23,29.4,23,29.4c-13.8-20-35.8-19.4-35.8-19.4c17.2,3.9,24.8,22.4,24.8,22.4c-10.4-10.2-24.2-6.2-24.2-6.2
			s15.5,6.9,26,23.5c5.1,8.1,1.4,18,8.3,23.3c21.8,16.9,0.4,17.4-8.6,21.5c-9,4.1-39.7,17.7-124.1,19 M534.6,323
			c0,0-12.5,32.6-23.8,45.6c-11.4,12.9-20.5,32.6-30.3,34.5c-2.1,0.4-4.4,0.8-6.5,0.8c0.5-0.7,0.9-1.5,1.3-2.2
			c-0.7,0.1-1.3,0.1-2,0.1c8.2-13,14.8-27.1,19.4-41.9c11.6-16.3,19.5-38.2,21.4-62.8l0.8,0.5c0.2-3.5,0.4-7,0.4-10.5
			c0-1.7-0.1-3.5-0.2-5.4c2.6,0.3,5.2,0.9,7.8,2.4l0.6-1.2c1.1,0.8,2.3,1.7,3.4,2.8c4.4,4.4,7,8.9,8.3,13.5
			C538,307.3,536.8,315.4,534.6,323z"/>
		<path fill="#221F1F" d="M221.2,313.9c-3.4,0-6.1-2.8-6.1-6.1c0-3.4,2.8-6.1,6.1-6.1c0.2,0,0.3,0,0.5,0c-2.2-5.5-5.6-9.1-9.5-9.1
			c-6.6,0-11.9,10.2-11.9,22.7c0,12.5,5.3,22.7,11.9,22.7c6.6,0,11.9-10.2,11.9-22.7c0-0.7,0-1.4-0.1-2.2
			C223.1,313.6,222.2,313.9,221.2,313.9z"/>
		<path fill="#221F1F" d="M412.4,313.9c-3.4,0-6.1-2.8-6.1-6.1c0-3.4,2.8-6.1,6.1-6.1c0.2,0,0.3,0,0.5,0c-2.2-5.5-5.6-9.1-9.5-9.1
			c-6.6,0-11.9,10.2-11.9,22.7c0,12.5,5.3,22.7,11.9,22.7c6.6,0,11.9-10.2,11.9-22.7c0-0.7,0-1.4-0.1-2.2
			C414.3,313.6,413.4,313.9,412.4,313.9z"/>
		<path fill="#221F1F" d="M328.2,405.5c18.1,7.4,20.8,17.7,24.7,23.6c3.9,5.9,10.9-6.9,10.9-6.9
			C357.5,400.2,328.2,405.5,328.2,405.5z"/>
		<path fill="#221F1F" d="M255.2,422.3c0,0,7.1,12.8,10.9,6.9c3.9-5.9,6.6-16.2,24.7-23.6C290.8,405.5,261.5,400.2,255.2,422.3z"/>
		<path fill="#221F1F" d="M349.5,393.9c1,1.6,2.8,2.5,4.2,3.9c-7.8-23.7-25-33.4-25-33.4s-7.7-2.9-13.9-6.8
			c-4.1-2.5-6.2-50.6-9.7-50.6c-3.5,0-4.8,48.8-9.6,51.6c-5.3,3-13.9,5.8-13.9,5.8s-22.2,10.5-28.1,36c7.1-6.8,10.3-11.9,12-14
			c4.5-5.7,6.7-6.6,13.3-10c4.9-2.5,20.4-13.5,25.9-13.9c10.8-0.7,6.5,5.9,17.2,9C335.3,375.5,343,383.4,349.5,393.9z"/>
		<path fill="#DDDDDD" d="M248.9,272.2c-0.8-1.5-2.7-1.9-4.2-1.1c-1.5,0.8-1.9,2.7-1.1,4.2l14.7,25.1c0.6,1,1.6,1.5,2.6,1.5
			c0.5,0,1.1-0.1,1.5-0.4c1.5-0.8,1.9-2.7,1.1-4.2L248.9,272.2z"/>
		<path fill="#DDDDDD" d="M234.8,270.3c-0.8-1.5-2.7-1.9-4.2-1.1c-1.5,0.8-1.9,2.7-1.1,4.2l24.3,41.5c0.6,1,1.6,1.5,2.6,1.5
			c0.5,0,1.1-0.1,1.5-0.4c1.5-0.8,1.9-2.7,1.1-4.2L234.8,270.3z"/>
		<polygon fill="#221F1F" points="559.3,155.5 569.1,159.5 569.9,145.9 		"/>
		<polygon fill="#221F1F" points="556.3,159.1 523.5,186.5 528.1,192.5 537.7,191.3 542.4,199.3 554.1,198.1 558.4,207.1 
			567.2,203.1 567.2,164.4 560.1,163.7 		"/>
	</g>
</g>
</svg>
